<svg id="my-board_bottom" xmlns="http://www.w3.org/2000/svg" version="1.1" xmlns:xlink="http://www.w3.org/1999/xlink" stroke-linecap="round" stroke-linejoin="round" stroke-width="0" fill-rule="evenodd" viewBox="438.6 460.1 2362.3 1456.7" width="2.3623000000000003in" height="1.4567in"><defs><style>/* <![CDATA[ */.my-board_fr4 {color: #666;}
.my-board_cu {color: #ccc;}
.my-board_cf {color: #c93;}
.my-board_sm {color: rgba(00, 66, 00, 0.75);}
.my-board_ss {color: #fff;}
.my-board_sp {color: #999;}
.my-board_out {color: #000;}/* ]]> */</style><rect id="ry-lDBI9b_pad-10" x="-23.6" y="-23.6" width="47.2" height="47.2"/><rect id="ry-lDBI9b_pad-11" x="-32" y="-32" width="64" height="64"/><polygon id="ry-lDBI9b_pad-12" points="31.99993,13.25481 13.25481,31.99993 -13.25481,31.99993 -31.99993,13.25481 -31.99993,-13.25481 -13.25481,-31.99993 13.25481,-31.99993 31.99993,-13.25481"/><circle id="ry-lDBI9b_pad-13" cx="0" cy="0" r="20"/><circle id="ry-lDBI9b_pad-14" cx="0" cy="0" r="22.5"/><circle id="ry-lDBI9b_pad-18" cx="0" cy="0" r="25"/><rect id="HkPlvHLqZ_pad-10" x="-27.6" y="-27.6" width="55.2" height="55.2"/><circle id="HkPlvHLqZ_pad-11" cx="0" cy="0" r="21.7"/><rect id="HkPlvHLqZ_pad-12" x="-36" y="-36" width="72" height="72"/><polygon id="HkPlvHLqZ_pad-13" points="35.99993,14.91166 14.91166,35.99993 -14.91166,35.99993 -35.99993,14.91166 -35.99993,-14.91166 -14.91166,-35.99993 14.91166,-35.99993 35.99993,-14.91166"/><circle id="HkPlvHLqZ_pad-14" cx="0" cy="0" r="67"/><circle id="HkPlvHLqZ_pad-15" cx="0" cy="0" r="29"/><circle id="ByzewHL9-_pad-1" cx="0" cy="0" r="10"/><circle id="ByzewHL9-_pad-2" cx="0" cy="0" r="12.5"/><circle id="ByzewHL9-_pad-3" cx="0" cy="0" r="15"/><circle id="ByzewHL9-_pad-4" cx="0" cy="0" r="17.7"/><circle id="ByzewHL9-_pad-5" cx="0" cy="0" r="20"/><circle id="ByzewHL9-_pad-6" cx="0" cy="0" r="63"/><g id="my-board_bottom_cu"><use xlink:href="#ry-lDBI9b_pad-10" x="987.9" y="1818.4"/><use xlink:href="#ry-lDBI9b_pad-10" x="1070.6" y="1818.4"/><use xlink:href="#ry-lDBI9b_pad-10" x="1381.6" y="1818.4"/><use xlink:href="#ry-lDBI9b_pad-10" x="1464.3" y="1818.4"/><use xlink:href="#ry-lDBI9b_pad-10" x="1775.3" y="1818.4"/><use xlink:href="#ry-lDBI9b_pad-10" x="1858" y="1818.4"/><use xlink:href="#ry-lDBI9b_pad-10" x="2169" y="1818.4"/><use xlink:href="#ry-lDBI9b_pad-10" x="2251.7" y="1818.4"/><use xlink:href="#ry-lDBI9b_pad-11" x="2516.2" y="988.4"/><use xlink:href="#ry-lDBI9b_pad-11" x="1419.8" y="597.9"/><use xlink:href="#ry-lDBI9b_pad-12" x="1519.8" y="597.9"/><use xlink:href="#ry-lDBI9b_pad-12" x="1619.8" y="597.9"/><use xlink:href="#ry-lDBI9b_pad-12" x="1719.8" y="597.9"/><use xlink:href="#ry-lDBI9b_pad-12" x="1819.8" y="597.9"/><use xlink:href="#ry-lDBI9b_pad-12" x="2416.2" y="988.4"/><use xlink:href="#ry-lDBI9b_pad-12" x="2416.2" y="1088.4"/><use xlink:href="#ry-lDBI9b_pad-12" x="2516.2" y="1088.4"/><use xlink:href="#ry-lDBI9b_pad-12" x="2516.2" y="1188.4"/><use xlink:href="#ry-lDBI9b_pad-12" x="2416.2" y="1188.4"/><use xlink:href="#ry-lDBI9b_pad-12" x="2416.2" y="1288.4"/><use xlink:href="#ry-lDBI9b_pad-12" x="2516.2" y="1288.4"/><use xlink:href="#ry-lDBI9b_pad-12" x="2516.2" y="1388.4"/><use xlink:href="#ry-lDBI9b_pad-12" x="2416.2" y="1388.4"/><use xlink:href="#ry-lDBI9b_pad-13" x="2236.5" y="1239.6"/><use xlink:href="#ry-lDBI9b_pad-13" x="2159.3" y="1226.7"/><use xlink:href="#ry-lDBI9b_pad-13" x="2271.2" y="1126.7"/><use xlink:href="#ry-lDBI9b_pad-13" x="2341.6" y="1188.4"/><use xlink:href="#ry-lDBI9b_pad-13" x="2664.4" y="1141.5"/><use xlink:href="#ry-lDBI9b_pad-13" x="2666.4" y="1340.5"/><use xlink:href="#ry-lDBI9b_pad-13" x="2668.4" y="1475.7"/><use xlink:href="#ry-lDBI9b_pad-13" x="2761.5" y="1601.8"/><use xlink:href="#ry-lDBI9b_pad-13" x="2387.6" y="1567.7"/><use xlink:href="#ry-lDBI9b_pad-13" x="2188.7" y="1560.1"/><use xlink:href="#ry-lDBI9b_pad-13" x="2111.9" y="1737.8"/><use xlink:href="#ry-lDBI9b_pad-13" x="2111.9" y="1818.4"/><use xlink:href="#ry-lDBI9b_pad-13" x="2348.7" y="1818.4"/><use xlink:href="#ry-lDBI9b_pad-13" x="2485.9" y="1877.4"/><use xlink:href="#ry-lDBI9b_pad-13" x="1876.2" y="1628.8"/><use xlink:href="#ry-lDBI9b_pad-13" x="1663.7" y="1735.1"/><use xlink:href="#ry-lDBI9b_pad-13" x="1718.2" y="1818.4"/><use xlink:href="#ry-lDBI9b_pad-13" x="1371.2" y="1620.5"/><use xlink:href="#ry-lDBI9b_pad-13" x="1252.4" y="1526.7"/><use xlink:href="#ry-lDBI9b_pad-13" x="1371.2" y="1489.2"/><use xlink:href="#ry-lDBI9b_pad-13" x="1502.4" y="1489.2"/><use xlink:href="#ry-lDBI9b_pad-13" x="1472.4" y="1376.7"/><use xlink:href="#ry-lDBI9b_pad-13" x="1392.4" y="1251.7"/><use xlink:href="#ry-lDBI9b_pad-13" x="1347.4" y="1106.7"/><use xlink:href="#ry-lDBI9b_pad-13" x="1177.4" y="1056.7"/><use xlink:href="#ry-lDBI9b_pad-13" x="1057.4" y="1051.7"/><use xlink:href="#ry-lDBI9b_pad-13" x="1047.4" y="1116.7"/><use xlink:href="#ry-lDBI9b_pad-13" x="1167.4" y="1206.7"/><use xlink:href="#ry-lDBI9b_pad-13" x="1000.4" y="1326.7"/><use xlink:href="#ry-lDBI9b_pad-13" x="863.7" y="1385.1"/><use xlink:href="#ry-lDBI9b_pad-13" x="782.4" y="1522.6"/><use xlink:href="#ry-lDBI9b_pad-13" x="1022.4" y="1619.2"/><use xlink:href="#ry-lDBI9b_pad-13" x="1138.7" y="1760.1"/><use xlink:href="#ry-lDBI9b_pad-13" x="1324.5" y="1751.4"/><use xlink:href="#ry-lDBI9b_pad-13" x="1324.5" y="1818.4"/><use xlink:href="#ry-lDBI9b_pad-13" x="930.8" y="1818.4"/><use xlink:href="#ry-lDBI9b_pad-13" x="753.6" y="1877.4"/><use xlink:href="#ry-lDBI9b_pad-13" x="478" y="1601.8"/><use xlink:href="#ry-lDBI9b_pad-13" x="1153.7" y="1426.7"/><use xlink:href="#ry-lDBI9b_pad-13" x="635.5" y="1168.7"/><use xlink:href="#ry-lDBI9b_pad-13" x="851.4" y="1077.7"/><use xlink:href="#ry-lDBI9b_pad-13" x="1057.4" y="966.7"/><use xlink:href="#ry-lDBI9b_pad-13" x="1137.4" y="861.7"/><use xlink:href="#ry-lDBI9b_pad-13" x="1032.4" y="836.7"/><use xlink:href="#ry-lDBI9b_pad-13" x="972.4" y="856.7"/><use xlink:href="#ry-lDBI9b_pad-13" x="771.4" y="913.7"/><use xlink:href="#ry-lDBI9b_pad-13" x="635.5" y="1031"/><use xlink:href="#ry-lDBI9b_pad-13" x="478" y="775"/><use xlink:href="#ry-lDBI9b_pad-13" x="753.6" y="499.5"/><use xlink:href="#ry-lDBI9b_pad-13" x="970.2" y="656.9"/><use xlink:href="#ry-lDBI9b_pad-13" x="1108" y="656.9"/><use xlink:href="#ry-lDBI9b_pad-13" x="1288.7" y="828.8"/><use xlink:href="#ry-lDBI9b_pad-13" x="1351.2" y="835.1"/><use xlink:href="#ry-lDBI9b_pad-13" x="1697.4" y="1036.7"/><use xlink:href="#ry-lDBI9b_pad-13" x="1547.4" y="1066.7"/><use xlink:href="#ry-lDBI9b_pad-13" x="1692.4" y="1156.7"/><use xlink:href="#ry-lDBI9b_pad-13" x="1971.4" y="1036.7"/><use xlink:href="#ry-lDBI9b_pad-13" x="1952.4" y="947.7"/><use xlink:href="#ry-lDBI9b_pad-13" x="1896.7" y="912.5"/><use xlink:href="#ry-lDBI9b_pad-13" x="1842.4" y="871"/><use xlink:href="#ry-lDBI9b_pad-13" x="1727.4" y="831.7"/><use xlink:href="#ry-lDBI9b_pad-13" x="1712.4" y="886.7"/><use xlink:href="#ry-lDBI9b_pad-13" x="1897.9" y="710.7"/><use xlink:href="#ry-lDBI9b_pad-13" x="1972.4" y="716.7"/><use xlink:href="#ry-lDBI9b_pad-13" x="1982.4" y="666.7"/><use xlink:href="#ry-lDBI9b_pad-13" x="2162.4" y="666.7"/><use xlink:href="#ry-lDBI9b_pad-13" x="2192.4" y="751.7"/><use xlink:href="#ry-lDBI9b_pad-13" x="2303.7" y="816.7"/><use xlink:href="#ry-lDBI9b_pad-13" x="2263.7" y="866.7"/><use xlink:href="#ry-lDBI9b_pad-13" x="2213.7" y="916.7"/><use xlink:href="#ry-lDBI9b_pad-13" x="2290.6" y="981.7"/><use xlink:href="#ry-lDBI9b_pad-13" x="2525.4" y="815.7"/><use xlink:href="#ry-lDBI9b_pad-13" x="2604.4" y="914.7"/><use xlink:href="#ry-lDBI9b_pad-13" x="2761.5" y="775"/><use xlink:href="#ry-lDBI9b_pad-13" x="2382.4" y="626.7"/><use xlink:href="#ry-lDBI9b_pad-13" x="2342.4" y="676.7"/><use xlink:href="#ry-lDBI9b_pad-13" x="2485.9" y="499.5"/><use xlink:href="#ry-lDBI9b_pad-13" x="2038.7" y="560.1"/><use xlink:href="#ry-lDBI9b_pad-13" x="1973.5" y="1383.2"/><use xlink:href="#ry-lDBI9b_pad-13" x="1757.4" y="1422.6"/><use xlink:href="#ry-lDBI9b_pad-14" x="2240.6" y="1426.7"/><use xlink:href="#ry-lDBI9b_pad-14" x="1501.2" y="728.8"/><path d="M 732.4 610.8 732.4 478.3 2507.1 478.3 2507.1 610.8 2506.6 611.3 2507.1 618.2 2507.1 625.1 2507.6 625.6 2507.9 629.6 2507.1 630.9 2508.4 637 2508.9 643.2 2510 644.2 2511 648.8 2510.4 650.1 2512.6 656 2513.9 662.1 2515.1 662.9 2516.8 667.3 2516.4 668.7 2519.4 674.2 2521.5 680.1 2522.9 680.7 2525.2 684.8 2524.9 686.3 2528.7 691.3 2531.7 696.8 2533.1 697.2 2535.9 701 2535.9 702.4 2540.3 706.9 2544.1 711.9 2545.5 712.1 2548.9 715.4 2549.1 716.9 2554.1 720.6 2558.5 725 2560 725 2563.8 727.9 2564.2 729.3 2569.7 732.3 2574.7 736 2576.1 735.8 2580.3 738.1 2580.9 739.4 2586.7 741.6 2592.2 744.6 2593.6 744.2 2598.1 745.8 2598.9 747.1 2605 748.4 2610.8 750.6 2612.2 750 2616.8 751 2617.8 752.1 2624 752.5 2630.1 753.9 2631.3 753.1 2635.3 753.3 2635.8 753.9 2642.7 753.9 2649.6 754.4 2650.2 753.9 2782.7 753.9 2782.7 1623 2650.2 1623 2649.6 1622.5 2642.7 1623 2635.8 1623 2635.3 1623.5 2631.3 1623.8 2630.1 1623 2624 1624.3 2617.8 1624.8 2616.8 1625.9 2612.2 1626.9 2610.8 1626.3 2605 1628.5 2598.9 1629.8 2598.1 1631 2593.6 1632.7 2592.2 1632.3 2586.7 1635.3 2580.9 1637.4 2580.3 1638.8 2576.1 1641.1 2574.7 1640.9 2569.7 1644.6 2564.2 1647.6 2563.8 1649 2560 1651.8 2558.5 1651.8 2554.1 1656.2 2549.1 1660 2548.9 1661.5 2545.5 1664.8 2544.1 1665 2540.3 1670 2535.9 1674.4 2535.9 1675.9 2533.1 1679.7 2531.7 1680.1 2528.7 1685.6 2524.9 1690.6 2525.2 1692 2522.9 1696.2 2521.5 1696.8 2519.4 1702.7 2516.4 1708.1 2516.8 1709.5 2515.1 1714 2513.9 1714.8 2512.6 1720.9 2510.4 1726.7 2511 1728.1 2510 1732.7 2508.9 1733.7 2508.4 1739.9 2507.1 1746 2507.9 1747.2 2507.6 1751.2 2507.1 1751.8 2507.1 1758.6 2506.6 1765.5 2507.1 1766.1 2507.1 1898.6 732.4 1898.6 732.4 1766.1 732.9 1765.5 732.4 1758.6 732.4 1751.8 731.9 1751.2 731.6 1747.2 732.4 1746 731.1 1739.9 730.7 1733.7 729.5 1732.7 728.5 1728.1 729.2 1726.7 727 1720.9 725.6 1714.8 724.4 1714 722.7 1709.5 723.2 1708.1 720.2 1702.7 718 1696.8 716.6 1696.2 714.4 1692 714.6 1690.6 710.8 1685.6 707.9 1680.1 706.4 1679.7 703.6 1675.9 703.6 1674.4 699.2 1670 695.5 1665 694 1664.8 690.6 1661.5 690.4 1660 685.4 1656.2 681 1651.8 679.5 1651.8 675.8 1649 675.3 1647.6 669.9 1644.6 664.9 1640.9 663.4 1641.1 659.2 1638.8 658.6 1637.4 652.8 1635.3 647.3 1632.3 645.9 1632.7 641.5 1631 640.7 1629.8 634.6 1628.5 628.7 1626.3 627.4 1626.9 622.7 1625.9 621.8 1624.8 615.5 1624.3 609.5 1623 608.2 1623.8 604.2 1623.5 603.7 1623 596.8 1623 589.9 1622.5 589.4 1623 456.9 1623 456.9 753.9 589.4 753.9 589.9 754.4 596.8 753.9 603.7 753.9 604.2 753.3 608.2 753.1 609.5 753.9 615.5 752.5 621.8 752.1 622.7 751 627.4 750 628.7 750.6 634.6 748.4 640.7 747.1 641.5 745.8 645.9 744.2 647.3 744.6 652.8 741.6 658.6 739.4 659.2 738.1 663.4 735.8 664.9 736 669.9 732.3 675.3 729.3 675.8 727.9 679.5 725 681 725 685.4 720.6 690.4 716.9 690.6 715.4 694 712.1 695.5 711.9 699.2 706.9 703.6 702.4 703.6 701 706.4 697.2 707.9 696.8 710.8 691.3 714.6 686.3 714.4 684.8 716.6 680.7 718 680.1 720.2 674.2 723.2 668.7 722.7 667.3 724.4 662.9 725.6 662.1 727 656 729.2 650.1 728.5 648.8 729.5 644.2 730.7 643.2 731.1 637 732.4 630.9 731.6 629.6 731.9 625.6 732.4 625.1 732.4 618.2 732.9 611.3 732.4 610.8 M 732.7 614.1 1369.8 614.1 M 1369.8 602.3 732.4 602.3 M 732.4 590.4 1369.8 590.4 M 1369.8 578.6 732.4 578.6 M 732.4 566.7 1369.8 566.7 M 1369.8 558.4 1380.3 547.9 1459.2 547.9 1469.8 558.4 1469.8 637.3 1459.2 647.9 1380.3 647.9 1369.8 637.3 1369.8 558.4 M 1373.3 554.9 732.4 554.9 M 732.4 543 2252.2 543 M 2258.8 536.4 2267.7 532.7 2396.7 532.7 2405.5 536.4 2483.3 614.1 2486.9 623 2486.9 938.4 2555.7 938.4 2566.2 949 2566.2 1027.9 2555.7 1038.4 2486.9 1038.4 2486.9 1047 2495.5 1038.4 2536.9 1038.4 2566.2 1067.7 2566.2 1109.1 2536.9 1138.4 2495.5 1138.4 2486.9 1129.8 2486.9 1141 2486.9 1145.7 2486.9 1145.8 2486.9 1145.9 2486.1 1147.8 2495.5 1138.4 2536.9 1138.4 2566.2 1167.7 2566.2 1209.1 2536.9 1238.4 2499.7 1238.4 2499.7 1238.4 2536.9 1238.4 2566.2 1267.7 2566.2 1309.1 2536.9 1338.4 2495.5 1338.4 2466.2 1309.1 2436.9 1338.4 2414.1 1338.4 2412.1 1340.4 2412.2 1340.4 2412.2 1384.4 2420.2 1384.4 2420.2 1340.4 2436.1 1340.4 2464.2 1368.6 2464.2 1384.4 2466.2 1384.4 M 2464.2 1384.4 2420.2 1384.4 2412.2 1384.4 2368.2 1384.4 2367.9 1384.4 M 2368.2 1384.4 2368.2 1384.1 2343.9 1408.3 2343.9 1495.6 2338.7 1508.1 2267.5 1579.3 2257.9 1588.9 2245.4 1594.1 2205.9 1594.1 2196.2 1598.1 2181.1 1598.1 2171.4 1594.1 1396.7 1594.1 1394.3 1596.5 1378.5 1603.1 1361.4 1603.1 1345.6 1596.5 1333.5 1584.4 1326.9 1568.6 1326.9 1551.5 1333.5 1535.7 1345.6 1523.6 1361.4 1517.1 1378.5 1517.1 1394.3 1523.6 1396.7 1526.1 2171.4 1526.1 2181.1 1522.1 2196.2 1522.1 2205.9 1526.1 2224.6 1526.1 2275.9 1474.8 2275.9 1400.8 2275.9 1400.8 2275.9 1394.1 2275.9 1387.3 2275.9 1387.2 2278.5 1381.1 2281.1 1374.9 2281.1 1374.8 2281.1 1374.8 2285.9 1370 2290.7 1365.3 2366.2 1290.2 2366.2 1267.7 2369.9 1264.1 2265.7 1264.1 2258 1271.8 2244 1277.6 2228.9 1277.6 2214.9 1271.8 2204.2 1261.1 2198.5 1247.2 2198.5 1232.1 2204.2 1218.1 2214.9 1207.4 2228.9 1201.6 2244 1201.6 2258 1207.4 2266.7 1216.1 2373.2 1216.1 2366.2 1209.1 2366.2 1167.7 2395.5 1138.4 2369.5 1112.4 2088.4 1112.4 2079.6 1108.8 2072.8 1102 2009.4 1038.7 2009.4 1044.3 2003.7 1058.3 1993 1069 1979 1074.7 1963.9 1074.7 1949.9 1069 1941.7 1060.7 1857.7 1060.7 1848.8 1057.1 1716.5 924.7 1704.9 924.7 1690.9 919 1680.2 908.3 1674.4 894.3 1674.4 879.2 1680.2 865.2 1690.9 854.5 1704.9 848.7 1720 848.7 1734 854.5 1744.7 865.2 1750.4 879.2 1750.4 890.8 1872.4 1012.7 1941.7 1012.7 1949.9 1004.5 1963.9 998.7 1969.5 998.7 1956.5 985.7 1944.9 985.7 1930.9 979.9 1920.2 969.2 1914.4 955.3 1914.4 946.3 1904.3 950.5 1889.1 950.5 1875.2 944.7 1864.5 934 1858.7 920 1858.7 905.4 1850 909 1834.9 909 1820.9 903.2 1810.2 892.5 1804.4 878.6 1804.4 863.4 1810.2 849.5 1820.9 838.8 1834.9 833 1850 833 1864 838.8 1872.2 847 1969.3 847 1978.2 850.6 1984.9 857.4 2060.3 932.7 2179.2 932.7 2175.7 924.3 2175.7 909.2 2181.5 895.2 2189.9 886.8 2189.9 850.6 2193.6 841.7 2200.3 835 2210.9 824.4 2210.9 785.2 2200 789.7 2191.2 789.7 2187.2 793.8 2177.6 797.7 1311.3 797.7 1320.9 807.3 1326.7 821.3 1326.7 832.9 1412.8 919 1416.4 927.8 1416.4 1222 1424.7 1230.2 1430.4 1244.2 1430.4 1259.3 1424.7 1273.3 1414 1284 1400 1289.7 1384.9 1289.7 1370.9 1284 1360.2 1273.3 1354.4 1259.3 1354.4 1244.2 1360.2 1230.2 1368.4 1222 1368.4 942.6 1292.7 866.8 1281.1 866.8 1267.1 861.1 1256.4 850.4 1250.7 836.4 1250.7 821.3 1256.4 807.3 1266 797.7 1108.2 797.7 1070.4 835.5 1070.4 844.3 1064.7 858.3 1054 869 1040 874.7 1024.9 874.7 1010.9 869 1000.2 858.3 994.4 844.3 994.4 829.2 1000.2 815.2 1010.9 804.5 1024.9 798.7 1033.7 798.7 1075.4 757 1081.7 750.7 806.5 750.7 606.9 950.4 606.9 1430.6 677.5 1501.2 681 1501.2 696.8 1507.8 708.9 1519.9 715.4 1535.7 715.4 1552.8 708.9 1568.6 696.8 1580.7 681 1587.2 663.9 1587.2 648.1 1580.7 636 1568.6 629.4 1552.8 629.4 1549.3 553.7 1473.5 544.1 1464 538.9 1451.5 538.9 929.5 544.1 917 553.7 907.4 773.2 687.9 785.7 682.7 1426 682.7 1480 628.8 1469.8 618.6 1469.8 577.2 1499.1 547.9 1540.5 547.9 1569.8 577.2 1569.8 618.6 1553.8 634.6 1553.8 643.8 1548.6 656.3 1539 665.9 1459.3 745.6 1458.9 745.7 1947.7 745.7 1940.2 738.3 1934.4 724.3 1934.4 709.2 1940.2 695.2 1949.3 686.1 1944.4 674.3 1944.4 659.2 1950.2 645.2 1960.9 634.5 1974.9 628.7 1990 628.7 2004 634.5 2012.2 642.7 2132.7 642.7 2140.9 634.5 2154.9 628.7 2166.5 628.7 2258.8 536.4 M 2272.4 556.7 2162.4 666.7 1982.4 666.7 M 1948.4 649.7 1551.3 649.7 M 1553.8 637.8 1591.8 637.8 M 1599.9 645.9 1571.8 617.8 1571.8 601.9 1615.8 601.9 1615.8 645.9 1599.9 645.9 M 1615.8 637.8 1623.8 637.8 M 1623.8 645.9 1623.8 601.9 1667.8 601.9 1667.8 617.8 1639.6 645.9 1623.8 645.9 M 1623.8 626 1615.8 626 M 1615.8 614.1 1623.8 614.1 M 1623.8 602.3 1615.8 602.3 M 1615.8 601.9 1623.8 601.9 1623.8 593.9 1667.8 593.9 1667.8 578 1639.6 549.9 1623.8 549.9 1623.8 593.9 1615.8 593.9 1615.8 549.9 1599.9 549.9 1571.8 578 1571.8 593.9 1615.8 593.9 1615.8 601.9 M 1615.8 590.4 1623.8 590.4 M 1623.8 578.6 1615.8 578.6 M 1615.8 566.7 1623.8 566.7 M 1623.8 554.9 1615.8 554.9 M 1594.9 554.9 1547.5 554.9 M 1559.3 566.7 1583 566.7 M 1571.8 578.6 1569.8 578.6 M 1569.8 590.4 1571.8 590.4 M 1571.8 602.3 1569.8 602.3 M 1569.8 614.1 1571.8 614.1 M 1580 626 1562.4 626 M 1543.4 661.5 1944.4 661.5 M 1944.4 673.4 1531.5 673.4 M 1519.7 685.2 1949 685.2 M 1939.5 697.1 1507.8 697.1 M 1496 708.9 1934.5 708.9 M 1934.4 720.8 1484.1 720.8 M 1472.3 732.6 1937.9 732.6 M 1946.4 744.5 1460.4 744.5 M 1435.3 673.4 720.6 673.4 M 725.8 661.5 1447.2 661.5 M 1459 649.7 728.9 649.7 M 731 637.8 1370.3 637.8 M 1369.8 626 731.9 626 M 714.4 685.2 779.6 685.2 M 764 697.1 706.7 697.1 M 697.6 708.9 752.2 708.9 M 740.3 720.8 685.3 720.8 M 669.4 732.6 728.5 732.6 M 716.6 744.5 647.5 744.5 M 647 744.5 645 744.5 M 681.1 780 456.9 780 M 456.9 768.2 692.9 768.2 M 704.8 756.3 456.9 756.3 M 456.9 791.9 669.2 791.9 M 657.4 803.7 456.9 803.7 M 456.9 815.6 645.5 815.6 M 633.7 827.4 456.9 827.4 M 456.9 839.3 621.8 839.3 M 610 851.1 456.9 851.1 M 456.9 863 598.1 863 M 586.3 874.8 456.9 874.8 M 456.9 886.7 574.4 886.7 M 562.6 898.5 456.9 898.5 M 456.9 910.4 550.7 910.4 M 541.9 922.2 456.9 922.2 M 456.9 934.1 538.9 934.1 M 538.9 945.9 456.9 945.9 M 456.9 957.8 538.9 957.8 M 538.9 969.6 456.9 969.6 M 456.9 981.5 538.9 981.5 M 538.9 993.3 456.9 993.3 M 456.9 1005.2 538.9 1005.2 M 538.9 1017 456.9 1017 M 456.9 1028.9 538.9 1028.9 M 538.9 1040.7 456.9 1040.7 M 456.9 1052.6 538.9 1052.6 M 538.9 1064.4 456.9 1064.4 M 456.9 1076.3 538.9 1076.3 M 538.9 1088.1 456.9 1088.1 M 456.9 1100 538.9 1100 M 538.9 1111.8 456.9 1111.8 M 456.9 1123.7 538.9 1123.7 M 538.9 1135.5 456.9 1135.5 M 456.9 1147.4 538.9 1147.4 M 538.9 1159.2 456.9 1159.2 M 456.9 1171.1 538.9 1171.1 M 538.9 1182.9 456.9 1182.9 M 456.9 1194.8 538.9 1194.8 M 538.9 1206.6 456.9 1206.6 M 456.9 1218.5 538.9 1218.5 M 538.9 1230.3 456.9 1230.3 M 456.9 1242.2 538.9 1242.2 M 538.9 1254 456.9 1254 M 456.9 1265.9 538.9 1265.9 M 538.9 1277.7 456.9 1277.7 M 456.9 1289.6 538.9 1289.6 M 538.9 1301.4 456.9 1301.4 M 456.9 1313.3 538.9 1313.3 M 538.9 1325.1 456.9 1325.1 M 456.9 1337 538.9 1337 M 538.9 1348.8 456.9 1348.8 M 456.9 1360.7 538.9 1360.7 M 538.9 1372.5 456.9 1372.5 M 456.9 1384.4 538.9 1384.4 M 538.9 1396.2 456.9 1396.2 M 456.9 1408.1 538.9 1408.1 M 538.9 1419.9 456.9 1419.9 M 456.9 1431.8 538.9 1431.8 M 538.9 1443.6 456.9 1443.6 M 456.9 1455.5 540.6 1455.5 M 547.5 1467.3 456.9 1467.3 M 456.9 1479.2 559.3 1479.2 M 571.2 1491 456.9 1491 M 456.9 1502.9 583 1502.9 M 594.9 1514.7 456.9 1514.7 M 456.9 1526.6 606.7 1526.6 M 618.6 1538.4 456.9 1538.4 M 456.9 1550.3 629.4 1550.3 M 633.3 1562.1 456.9 1562.1 M 456.9 1574 641.4 1574 M 660.5 1585.8 456.9 1585.8 M 456.9 1597.7 990.3 1597.7 M 990.2 1597.7 996.6 1591.3 996.9 1556.2 996.9 1402.2 1000.9 1392.6 1047.9 1345.6 1047.9 1180.1 1032.7 1164.9 1025.4 1157.6 1021.4 1148 1021.4 1144.5 1015.2 1138.3 1009.4 1124.3 1009.4 1109.2 1015.2 1095.2 1025.9 1084.5 1033.4 1081.4 1025.2 1073.3 1019.4 1059.3 1019.4 1044.2 1025.2 1030.2 1035.9 1019.5 1049.9 1013.7 1065 1013.7 1079 1019.5 1089.7 1030.2 1095.4 1044.2 1095.4 1055.8 1121 1081.4 1127.8 1088.1 1368.4 1088.1 M 1368.4 1076.3 1115.9 1076.3 M 1104.1 1064.4 1368.4 1064.4 M 1368.4 1052.6 1095.4 1052.6 M 1094 1040.7 1368.4 1040.7 M 1368.4 1028.9 1088.3 1028.9 M 1073 1017 1368.4 1017 M 1368.4 1005.2 606.9 1005.2 M 606.9 1017 1041.9 1017 M 1026.6 1028.9 606.9 1028.9 M 606.9 1040.7 1020.9 1040.7 M 1019.4 1052.6 606.9 1052.6 M 606.9 1064.4 1021.6 1064.4 M 1028.2 1076.3 670.3 1076.3 M 665.6 1071.5 675.6 1081.6 681.1 1094.7 681.1 1108.9 675.6 1122.1 665.6 1132.1 652.5 1137.5 638.2 1137.5 625.1 1132.1 615.1 1122.1 609.6 1108.9 609.6 1094.7 615.1 1081.6 625.1 1071.5 638.2 1066.1 652.5 1066.1 665.6 1071.5 M 678.3 1088.1 1022.3 1088.1 M 1013.2 1100 681.1 1100 M 679.9 1111.8 1009.4 1111.8 M 1009.4 1123.7 674 1123.7 M 657.3 1135.5 1014.1 1135.5 M 1021.4 1147.4 606.9 1147.4 M 606.9 1159.2 1027 1159.2 M 1038.9 1171.1 606.9 1171.1 M 606.9 1182.9 1047.9 1182.9 M 1047.9 1194.8 606.9 1194.8 M 606.9 1206.6 1047.9 1206.6 M 1047.9 1218.5 606.9 1218.5 M 606.9 1230.3 1047.9 1230.3 M 1047.9 1242.2 659.4 1242.2 M 665.6 1244.8 675.6 1254.8 681.1 1267.9 681.1 1282.2 675.6 1295.3 665.6 1305.3 652.5 1310.8 638.2 1310.8 625.1 1305.3 615.1 1295.3 609.6 1282.2 609.6 1267.9 615.1 1254.8 625.1 1244.8 638.2 1239.3 652.5 1239.3 665.6 1244.8 M 674.9 1254 1047.9 1254 M 1047.9 1265.9 680.2 1265.9 M 681.1 1277.7 1047.9 1277.7 M 1047.9 1289.6 678 1289.6 M 669.5 1301.4 1047.9 1301.4 M 1047.9 1313.3 606.9 1313.3 M 606.9 1325.1 1047.9 1325.1 M 1047.9 1337 606.9 1337 M 606.9 1348.8 1044.6 1348.8 M 1032.8 1360.7 606.9 1360.7 M 606.9 1372.5 1020.9 1372.5 M 1009.1 1384.4 606.9 1384.4 M 606.9 1396.2 999.4 1396.2 M 996.9 1408.1 606.9 1408.1 M 606.9 1419.9 996.9 1419.9 M 996.9 1431.8 608.1 1431.8 M 619.9 1443.6 996.9 1443.6 M 996.9 1455.5 631.8 1455.5 M 643.6 1467.3 996.9 1467.3 M 996.9 1479.2 655.5 1479.2 M 667.3 1491 996.9 1491 M 996.9 1502.9 685 1502.9 M 703.8 1514.7 996.9 1514.7 M 996.9 1526.6 711.7 1526.6 M 715.4 1538.4 996.9 1538.4 M 996.9 1550.3 715.4 1550.3 M 711.6 1562.1 996.9 1562.1 M 996.8 1574 703.5 1574 M 684.4 1585.8 996.7 1585.8 M 990.2 1597.7 984.4 1611.7 984.4 1626.8 990.2 1640.8 1000.9 1651.5 1014.9 1657.2 1030 1657.2 1044 1651.5 1054.7 1640.8 1060.4 1626.8 1060.4 1611.7 1054.7 1597.7 1048.6 1591.7 1048.9 1561.5 1048.9 1561.4 1048.9 1556.4 1049 1551.3 1048.9 1551.2 1048.9 1418.1 1083.4 1383.6 1083.4 1614 1087.1 1622.8 1229.3 1765 1236.1 1771.8 1244.9 1775.4 1294.7 1775.4 1303 1783.6 1306 1784.9 1303 1786.1 1292.3 1796.8 1286.5 1810.8 1286.5 1825.9 1292.3 1839.9 1303 1850.6 1316.9 1856.4 1332 1856.4 1342.5 1852 1350.5 1860 1412.7 1860 1422.9 1849.7 1433.2 1860 1495.3 1860 1505.9 1849.4 1505.9 1787.3 1695.5 1787.3 M 1696.7 1786.1 1710.6 1780.4 1725.7 1780.4 1736.2 1784.7 1744.2 1776.7 1806.4 1776.7 1816.9 1787.3 1820.2 1787.3 M 1819.4 1788.6 1821.5 1784.9 1824.5 1781.9 1828.2 1779.8 1832.2 1778.7 1852.1 1778.7 1852.1 1812.5 1863.8 1812.5 1863.8 1824.2 1852.1 1824.2 1852.1 1858 1832.2 1858 1828.2 1856.9 1824.5 1854.8 1821.5 1851.8 1819.4 1848.2 1818.3 1844.1 1818.3 1824.2 1852.1 1824.2 1852.1 1812.5 1818.3 1812.5 1818.3 1792.6 1819.4 1788.6 M 1816.9 1787.3 1816.9 1849.4 1806.4 1860 1744.2 1860 1736.2 1852 1725.7 1856.4 1710.6 1856.4 1696.7 1850.6 1686 1839.9 1680.2 1825.9 1680.2 1810.8 1686 1796.8 1696.7 1786.1 M 1685 1799.1 1505.9 1799.1 M 1505.9 1787.3 1495.3 1776.7 1474.3 1776.7 1428.6 1731.1 1419.8 1727.4 1354.2 1727.4 1346 1719.2 1332 1713.4 1316.9 1713.4 1303 1719.2 1294.7 1727.4 1259.6 1727.4 1131.4 1599.2 1131.4 1097 1127.8 1088.1 M 1131.4 1100 1368.4 1100 M 1368.4 1111.8 1131.4 1111.8 M 1131.4 1123.7 1368.4 1123.7 M 1368.4 1135.5 1131.4 1135.5 M 1131.4 1147.4 1368.4 1147.4 M 1368.4 1159.2 1131.4 1159.2 M 1131.4 1171.1 1368.4 1171.1 M 1368.4 1182.9 1131.4 1182.9 M 1131.4 1194.8 1368.4 1194.8 M 1368.4 1206.6 1131.4 1206.6 M 1131.4 1218.5 1368.4 1218.5 M 1360.2 1230.3 1131.4 1230.3 M 1131.4 1242.2 1355.3 1242.2 M 1354.4 1254 1131.4 1254 M 1131.4 1265.9 1357.2 1265.9 M 1364.7 1277.7 1131.4 1277.7 M 1131.4 1289.6 1384.5 1289.6 M 1400.4 1289.6 1668.5 1289.6 M 1668.9 1289.7 1653.1 1283.2 1641 1271.1 1634.4 1255.3 1634.4 1246.2 1592 1203.7 1587.4 1192.7 1587.4 1004.2 1548 964.7 1538.9 964.7 1523.1 958.2 1511 946.1 1504.4 930.3 1504.4 913.2 1511 897.4 1523.1 885.3 1538.9 878.7 1556 878.7 1571.8 885.3 1583.9 897.4 1590.4 913.2 1590.4 922.3 1634.4 966.3 1642.9 974.7 1647.4 985.8 1647.4 1174.3 1676.9 1203.7 1686 1203.7 1701.8 1210.3 1713.9 1222.4 1720.4 1238.2 1720.4 1255.3 1713.9 1271.1 1701.8 1283.2 1686 1289.7 1668.9 1289.7 M 1686.4 1289.6 2366.2 1289.6 M 2366.2 1277.7 1707.3 1277.7 M 1716.1 1265.9 2209 1265.9 M 2201.3 1254 1720.4 1254 M 1720.4 1242.2 2198.5 1242.2 M 2199.2 1230.3 1717.2 1230.3 M 1710 1218.5 2204.1 1218.5 M 2216.8 1206.6 1693 1206.6 M 1667.9 1194.8 2366.2 1194.8 M 2366.2 1206.6 2256.1 1206.6 M 2243.9 1240.1 2236.5 1239.6 M 2243.9 1240.1 2467.2 1240.1 2516.2 1288.4 M 2566.2 1289.6 2782.7 1289.6 M 2782.7 1301.4 2566.2 1301.4 M 2562.1 1313.3 2782.7 1313.3 M 2782.7 1325.1 2550.2 1325.1 M 2538.4 1337 2782.7 1337 M 2782.7 1348.8 2547.3 1348.8 M 2536.9 1338.4 2495.5 1338.4 2466.2 1367.7 2466.2 1409.1 2495.5 1438.4 2536.9 1438.4 2566.2 1409.1 2566.2 1367.7 2536.9 1338.4 M 2559.2 1360.7 2782.7 1360.7 M 2782.7 1372.5 2566.2 1372.5 M 2566.2 1384.4 2782.7 1384.4 M 2782.7 1396.2 2566.2 1396.2 M 2566.2 1408.1 2782.7 1408.1 M 2782.7 1419.9 2555.4 1419.9 M 2543.6 1431.8 2782.7 1431.8 M 2782.7 1443.6 2343.9 1443.6 M 2343.9 1431.8 2391.7 1431.8 M 2396.3 1436.4 2368.2 1408.3 2368.2 1392.4 2412.2 1392.4 2412.2 1384.4 M 2420.2 1384.4 2420.2 1392.4 2464.2 1392.4 2464.2 1408.3 2436.1 1436.4 2420.2 1436.4 2420.2 1392.4 2412.2 1392.4 2412.2 1436.4 2396.3 1436.4 M 2412.2 1431.8 2420.2 1431.8 M 2420.2 1419.9 2412.2 1419.9 M 2412.2 1408.1 2420.2 1408.1 M 2420.2 1396.2 2412.2 1396.2 M 2412.2 1372.5 2420.2 1372.5 M 2420.2 1360.7 2412.2 1360.7 M 2412.2 1348.8 2420.2 1348.8 M 2438.4 1337 2494.1 1337 M 2485.1 1348.8 2444.5 1348.8 M 2456.4 1360.7 2473.3 1360.7 M 2466.2 1372.5 2464.2 1372.5 M 2464.2 1396.2 2466.2 1396.2 M 2466.2 1408.1 2464.2 1408.1 M 2452.6 1419.9 2477 1419.9 M 2488.9 1431.8 2440.7 1431.8 M 2379.8 1419.9 2343.9 1419.9 M 2344.1 1408.1 2368.2 1408.1 M 2368.2 1396.2 2356 1396.2 M 2283.4 1372.5 1131.4 1372.5 M 1131.4 1360.7 2295.3 1360.7 M 2290.7 1365.3 2290.7 1365.3 M 2307.2 1348.8 1131.4 1348.8 M 1131.4 1337 2319.1 1337 M 2331.1 1325.1 1131.4 1325.1 M 1131.4 1313.3 2343 1313.3 M 2354.9 1301.4 1131.4 1301.4 M 1131.4 1384.4 2277.1 1384.4 M 2275.9 1387.3 2275.9 1387.3 M 2275.9 1396.2 1131.4 1396.2 M 1131.4 1408.1 2275.9 1408.1 M 2275.9 1419.9 1131.4 1419.9 M 1131.4 1431.8 2275.9 1431.8 M 2275.9 1443.6 1131.4 1443.6 M 1131.4 1455.5 2275.9 1455.5 M 2275.9 1467.3 1131.4 1467.3 M 1131.4 1479.2 2271.5 1479.2 M 2259.6 1491 1131.4 1491 M 1131.4 1502.9 2247.8 1502.9 M 2235.9 1514.7 1131.4 1514.7 M 1131.4 1526.6 1342.6 1526.6 M 1332.3 1538.4 1131.4 1538.4 M 1131.4 1550.3 1327.4 1550.3 M 1326.9 1562.1 1131.4 1562.1 M 1131.4 1574 1329.1 1574 M 1334.9 1585.8 1131.4 1585.8 M 1131.4 1597.7 1348.3 1597.7 M 1391.5 1597.7 2180.1 1597.7 M 2197.2 1597.7 2782.7 1597.7 M 2782.7 1609.5 1141.7 1609.5 M 1153.6 1621.4 2782.7 1621.4 M 2782.7 1585.8 2261 1585.8 M 2272.8 1574 2782.7 1574 M 2782.7 1562.1 2284.7 1562.1 M 2296.5 1550.3 2782.7 1550.3 M 2782.7 1538.4 2308.4 1538.4 M 2320.2 1526.6 2782.7 1526.6 M 2782.7 1514.7 2332.1 1514.7 M 2340.9 1502.9 2782.7 1502.9 M 2782.7 1491 2343.9 1491 M 2343.9 1479.2 2782.7 1479.2 M 2782.7 1467.3 2343.9 1467.3 M 2343.9 1455.5 2782.7 1455.5 M 2782.7 1277.7 2566.2 1277.7 M 2564.4 1265.9 2782.7 1265.9 M 2782.7 1254 2552.5 1254 M 2540.7 1242.2 2782.7 1242.2 M 2782.7 1230.3 2545 1230.3 M 2556.9 1218.5 2782.7 1218.5 M 2782.7 1206.6 2566.2 1206.6 M 2566.2 1194.8 2782.7 1194.8 M 2782.7 1182.9 2566.2 1182.9 M 2566.2 1171.1 2782.7 1171.1 M 2782.7 1159.2 2557.7 1159.2 M 2545.9 1147.4 2782.7 1147.4 M 2782.7 1135.5 2539.8 1135.5 M 2551.7 1123.7 2782.7 1123.7 M 2782.7 1111.8 2563.5 1111.8 M 2566.2 1100 2782.7 1100 M 2782.7 1088.1 2566.2 1088.1 M 2566.2 1076.3 2782.7 1076.3 M 2782.7 1064.4 2562.9 1064.4 M 2551.1 1052.6 2782.7 1052.6 M 2782.7 1040.7 2539.2 1040.7 M 2565.2 1028.9 2782.7 1028.9 M 2782.7 1017 2566.2 1017 M 2566.2 1005.2 2782.7 1005.2 M 2782.7 993.3 2566.2 993.3 M 2566.2 981.5 2782.7 981.5 M 2782.7 969.6 2566.2 969.6 M 2566.2 957.8 2782.7 957.8 M 2782.7 945.9 2563.2 945.9 M 2486.9 934.1 2782.7 934.1 M 2782.7 922.2 2486.9 922.2 M 2486.9 910.4 2782.7 910.4 M 2782.7 898.5 2486.9 898.5 M 2486.9 886.7 2782.7 886.7 M 2782.7 874.8 2486.9 874.8 M 2486.9 863 2782.7 863 M 2782.7 851.1 2486.9 851.1 M 2486.9 839.3 2782.7 839.3 M 2782.7 827.4 2486.9 827.4 M 2486.9 815.6 2782.7 815.6 M 2782.7 803.7 2486.9 803.7 M 2486.9 791.9 2782.7 791.9 M 2782.7 780 2486.9 780 M 2486.9 768.2 2782.7 768.2 M 2782.7 756.3 2486.9 756.3 M 2486.9 744.5 2592 744.5 M 2592.6 744.5 2594.5 744.5 M 2570.2 732.6 2486.9 732.6 M 2486.9 720.8 2554.3 720.8 M 2541.9 708.9 2486.9 708.9 M 2486.9 697.1 2532.8 697.1 M 2525.1 685.2 2486.9 685.2 M 2486.9 673.4 2518.9 673.4 M 2513.8 661.5 2486.9 661.5 M 2486.9 649.7 2510.6 649.7 M 2508.5 637.8 2486.9 637.8 M 2486.9 626 2507.6 626 M 2506.8 614.1 2483.3 614.1 M 2471.4 602.3 2507.1 602.3 M 2507.1 590.4 2459.6 590.4 M 2447.7 578.6 2507.1 578.6 M 2507.1 566.7 2435.9 566.7 M 2424 554.9 2507.1 554.9 M 2507.1 543 2412.2 543 M 2391.9 556.7 2462.9 627.7 2462.9 1141.1 2416.2 1188.4 M 2366.2 1182.9 1656.1 1182.9 M 1647.4 1171.1 2366.2 1171.1 M 2374.7 1159.2 1647.4 1159.2 M 1647.4 1147.4 2386.6 1147.4 M 2395.5 1138.4 2431.8 1138.4 2431.8 1138.4 2395.5 1138.4 M 2392.6 1135.5 1647.4 1135.5 M 1647.4 1123.7 2380.8 1123.7 M 2416.2 1088.4 2093.1 1088.4 1952.4 947.7 M 1934.7 981.5 1841.1 981.5 M 1829.3 969.6 1920.6 969.6 M 1915.5 957.8 1817.4 957.8 M 1805.6 945.9 1878.1 945.9 M 1864.6 934.1 1793.7 934.1 M 1781.9 922.2 1859.6 922.2 M 1858.7 910.4 1770 910.4 M 1758.2 898.5 1816.2 898.5 M 1807.8 886.7 1750.4 886.7 M 1748.6 874.8 1804.4 874.8 M 1804.6 863 1742.4 863 M 1725.8 851.1 1809.5 851.1 M 1820.4 839.3 1333.1 839.3 M 1326.7 827.4 2207.9 827.4 M 2210.9 815.6 1324.3 815.6 M 1317.3 803.7 2210.9 803.7 M 2210.9 791.9 2189.1 791.9 M 2196 839.3 1864.5 839.3 M 1842.4 871 1964.6 871 2050.3 956.7 2235.6 956.7 2265.6 926.7 2353.9 926.7 2416.2 988.4 M 2486.9 1040.7 2493.2 1040.7 M 2492.6 1135.5 2486.9 1135.5 M 2486.3 1147.4 2486.6 1147.4 M 2466.2 1272.8 2466.2 1309.1 2466.2 1272.8 2466.2 1272.8 M 2466.2 1277.7 2466.2 1277.7 M 2466.2 1289.6 2466.2 1289.6 M 2466.2 1301.4 2466.2 1301.4 M 2462.1 1313.3 2470.4 1313.3 M 2482.2 1325.1 2450.2 1325.1 M 2368.1 1265.9 2263.9 1265.9 M 2086.9 1111.8 1647.4 1111.8 M 1647.4 1100 2070.8 1100 M 2058.9 1088.1 1647.4 1088.1 M 1647.4 1076.3 2047.1 1076.3 M 2035.2 1064.4 1997.5 1064.4 M 2006 1052.6 2023.4 1052.6 M 2011.5 1040.7 2009.4 1040.7 M 1971.4 1036.7 1862.4 1036.7 1712.4 886.7 M 1674.4 886.7 1573.2 886.7 M 1584.4 898.5 1676.2 898.5 M 1682.3 910.4 1589.3 910.4 M 1590.4 922.2 1698.8 922.2 M 1725.8 934.1 1602.2 934.1 M 1614.1 945.9 1737.7 945.9 M 1749.5 957.8 1625.9 957.8 M 1637.8 969.6 1761.4 969.6 M 1773.2 981.5 1645.7 981.5 M 1647.4 993.3 1785.1 993.3 M 1796.9 1005.2 1647.4 1005.2 M 1647.4 1017 1808.8 1017 M 1820.6 1028.9 1647.4 1028.9 M 1647.4 1040.7 1832.5 1040.7 M 1844.3 1052.6 1647.4 1052.6 M 1647.4 1064.4 1945.4 1064.4 M 1949.3 1005.2 1864.8 1005.2 M 1853 993.3 1964.1 993.3 M 2040.3 981.7 1961.1 902.5 1906.7 902.5 1896.7 912.5 M 1990.5 863 2189.9 863 M 2189.9 874.8 2002.4 874.8 M 2014.2 886.7 2189.9 886.7 M 2180.1 898.5 2026.1 898.5 M 2037.9 910.4 2175.7 910.4 M 2175.7 922.2 2049.8 922.2 M 2040.3 981.7 2290.6 981.7 M 2213.9 916.5 2213.7 916.7 M 2213.9 916.5 2213.9 855.3 2234.9 834.3 2234.9 732.3 2209.3 706.7 1982.4 706.7 1972.4 716.7 M 1957.6 637.8 1850.5 637.8 M 1840.5 647.9 1799.1 647.9 1769.8 618.6 1769.8 577.2 1799.1 547.9 1840.5 547.9 1869.8 577.2 1869.8 618.6 1840.5 647.9 M 1862.4 626 2169.3 626 M 2181.1 614.1 1869.8 614.1 M 1869.8 602.3 2193 602.3 M 2204.8 590.4 1869.8 590.4 M 1869.8 578.6 2216.7 578.6 M 2228.5 566.7 1859.3 566.7 M 1847.5 554.9 2240.4 554.9 M 2272.4 556.7 2391.9 556.7 M 2382.4 626.7 2382.4 738 2303.7 816.7 M 2263.7 794.6 2342.4 715.8 2342.4 676.7 M 2263.7 794.6 2263.7 866.7 M 2189.9 851.1 1978.7 851.1 M 1699.1 851.1 1344.9 851.1 M 1356.8 863 1682.5 863 M 1676.2 874.8 1368.6 874.8 M 1380.5 886.7 1521.7 886.7 M 1510.5 898.5 1392.3 898.5 M 1404.2 910.4 1505.6 910.4 M 1504.4 922.2 1414.1 922.2 M 1416.4 934.1 1506 934.1 M 1510.9 945.9 1416.4 945.9 M 1416.4 957.8 1522.7 957.8 M 1552.9 969.6 1416.4 969.6 M 1416.4 981.5 1564.8 981.5 M 1576.6 993.3 1416.4 993.3 M 1416.4 1005.2 1587.4 1005.2 M 1587.4 1017 1416.4 1017 M 1416.4 1028.9 1587.4 1028.9 M 1587.4 1040.7 1416.4 1040.7 M 1416.4 1052.6 1587.4 1052.6 M 1587.4 1064.4 1416.4 1064.4 M 1416.4 1076.3 1587.4 1076.3 M 1587.4 1088.1 1416.4 1088.1 M 1416.4 1100 1587.4 1100 M 1587.4 1111.8 1416.4 1111.8 M 1416.4 1123.7 1587.4 1123.7 M 1587.4 1135.5 1416.4 1135.5 M 1416.4 1147.4 1587.4 1147.4 M 1587.4 1159.2 1416.4 1159.2 M 1416.4 1171.1 1587.4 1171.1 M 1587.4 1182.9 1416.4 1182.9 M 1416.4 1194.8 1588.3 1194.8 M 1594.9 1206.6 1416.4 1206.6 M 1416.4 1218.5 1606.8 1218.5 M 1618.6 1230.3 1424.7 1230.3 M 1429.6 1242.2 1630.5 1242.2 M 1634.4 1254 1430.4 1254 M 1427.7 1265.9 1638.8 1265.9 M 1647.6 1277.7 1420.2 1277.7 M 1392.4 1251.7 1392.4 932.6 1288.7 828.8 M 1253 815.6 1090.4 815.6 M 1102.2 803.7 1260 803.7 M 1250.7 827.4 1078.5 827.4 M 1070.4 839.3 1251.9 839.3 M 1257.2 851.1 1067.6 851.1 M 1059.9 863 1271.8 863 M 1300.7 874.8 682.4 874.8 M 694.3 863 1004.9 863 M 997.3 851.1 706.1 851.1 M 718 839.3 994.4 839.3 M 995.2 827.4 729.8 827.4 M 741.7 815.6 1000.1 815.6 M 1012.8 803.7 753.5 803.7 M 765.4 791.9 1040.5 791.9 M 1052.4 780 777.2 780 M 789.1 768.2 1064.2 768.2 M 1075.4 757 1075.4 757 M 1076.1 756.3 800.9 756.3 M 670.6 886.7 1312.6 886.7 M 1324.4 898.5 658.7 898.5 M 646.9 910.4 1336.3 910.4 M 1348.1 922.2 635 922.2 M 623.2 934.1 1360 934.1 M 1368.4 945.9 611.3 945.9 M 606.9 957.8 1368.4 957.8 M 1368.4 969.6 606.9 969.6 M 606.9 981.5 1368.4 981.5 M 1368.4 993.3 606.9 993.3 M 606.9 1076.3 620.4 1076.3 M 612.4 1088.1 606.9 1088.1 M 606.9 1100 609.6 1100 M 610.8 1111.8 606.9 1111.8 M 606.9 1123.7 616.7 1123.7 M 606.9 1135.5 633.4 1135.5 M 631.4 1242.2 606.9 1242.2 M 606.9 1254 615.9 1254 M 610.5 1265.9 606.9 1265.9 M 606.9 1277.7 609.6 1277.7 M 606.9 1289.6 612.7 1289.6 M 606.9 1301.4 621.2 1301.4 M 1048.9 1419.9 1083.4 1419.9 M 1083.4 1408.1 1058.9 1408.1 M 1070.8 1396.2 1083.4 1396.2 M 1082.6 1384.4 1083.4 1384.4 M 1083.4 1431.8 1048.9 1431.8 M 1048.9 1443.6 1083.4 1443.6 M 1083.4 1455.5 1048.9 1455.5 M 1048.9 1467.3 1083.4 1467.3 M 1083.4 1479.2 1048.9 1479.2 M 1048.9 1491 1083.4 1491 M 1083.4 1502.9 1048.9 1502.9 M 1048.9 1514.7 1083.4 1514.7 M 1083.4 1526.6 1048.9 1526.6 M 1048.9 1538.4 1083.4 1538.4 M 1083.4 1550.3 1048.9 1550.3 M 1048.9 1562.1 1083.4 1562.1 M 1083.4 1574 1048.8 1574 M 1048.7 1585.8 1083.4 1585.8 M 1083.4 1597.7 1054.6 1597.7 M 1059.6 1609.5 1083.4 1609.5 M 1086.5 1621.4 1060.4 1621.4 M 1057.8 1633.2 1097.6 1633.2 M 1109.4 1645.1 1050.3 1645.1 M 1030.7 1656.9 1121.3 1656.9 M 1133.1 1668.8 698.3 1668.8 M 708.2 1680.6 1145 1680.6 M 1156.8 1692.5 714.6 1692.5 M 721.1 1704.3 1168.7 1704.3 M 1180.5 1716.2 726 1716.2 M 728.6 1728 1192.4 1728 M 1204.2 1739.9 731.1 1739.9 M 732.4 1751.7 1216.1 1751.7 M 1227.9 1763.6 732.8 1763.6 M 732.4 1775.4 1294.8 1775.4 M 1301.8 1787.3 1108.4 1787.3 M 1109.1 1788.6 1110.2 1792.6 1110.2 1812.5 1076.4 1812.5 1076.4 1824.2 1064.7 1824.2 1064.7 1858 1044.8 1858 1040.8 1856.9 1037.1 1854.8 1034.1 1851.8 1032 1848.2 1030.9 1844.1 1030.9 1824.2 1064.7 1824.2 1064.7 1812.5 1076.4 1812.5 1076.4 1778.7 1096.3 1778.7 1100.3 1779.8 1104 1781.9 1107 1784.9 1109.1 1788.6 M 1110.2 1799.1 1291.3 1799.1 M 1286.5 1811 1110.2 1811 M 1110.2 1824.2 1076.4 1824.2 1076.4 1858 1096.3 1858 1100.3 1856.9 1104 1854.8 1107 1851.8 1109.1 1848.2 1110.2 1844.1 1110.2 1824.2 M 1110.2 1834.7 1290.1 1834.7 M 1286.5 1822.8 1076.4 1822.8 M 1064.7 1822.8 1029.5 1822.8 M 1030.9 1812.5 1030.9 1792.6 1032 1788.6 1034.1 1784.9 1037.1 1781.9 1040.8 1779.8 1044.8 1778.7 1064.7 1778.7 1064.7 1812.5 1030.9 1812.5 M 1030.9 1811 1029.5 1811 M 1029.5 1799.1 1030.9 1799.1 M 1029.5 1787.3 1032.8 1787.3 M 1029.5 1787.3 1029.5 1849.4 1019 1860 956.8 1860 948.8 1852 938.3 1856.4 923.2 1856.4 909.3 1850.6 898.6 1839.9 892.8 1825.9 892.8 1810.8 898.6 1796.8 909.3 1786.1 923.2 1780.4 938.3 1780.4 948.8 1784.7 956.8 1776.7 1019 1776.7 1029.5 1787.3 M 1064.7 1787.3 1076.4 1787.3 M 1076.4 1799.1 1064.7 1799.1 M 1064.7 1811 1076.4 1811 M 1076.4 1834.7 1064.7 1834.7 M 1064.7 1846.5 1076.4 1846.5 M 1109.5 1846.5 1298.9 1846.5 M 1324.5 1818.4 1381.6 1818.4 M 1414.2 1858.4 1431.6 1858.4 M 1464.3 1818.4 1464.3 1800.6 1415 1751.4 1324.5 1751.4 1249.7 1751.4 1107.4 1609.2 1107.4 1101.7 1057.4 1051.7 M 1469.3 637.8 1470.9 637.8 M 1469.8 626 1477.2 626 M 1469.8 614.1 1469.8 614.1 M 1469.8 602.3 1469.8 602.3 M 1469.8 590.4 1469.8 590.4 M 1469.8 578.6 1469.8 578.6 M 1469.8 566.7 1480.2 566.7 M 1492 554.9 1466.2 554.9 M 1644.7 554.9 1692 554.9 M 1699.1 547.9 1740.5 547.9 1769.8 577.2 1769.8 618.6 1740.5 647.9 1699.1 647.9 1669.8 618.6 1669.8 577.2 1699.1 547.9 M 1680.2 566.7 1656.5 566.7 M 1667.8 578.6 1669.8 578.6 M 1669.8 590.4 1667.8 590.4 M 1667.8 602.3 1669.8 602.3 M 1669.8 614.1 1667.8 614.1 M 1659.5 626 1677.2 626 M 1689 637.8 1647.7 637.8 M 1750.5 637.8 1789 637.8 M 1777.2 626 1762.4 626 M 1769.8 614.1 1769.8 614.1 M 1769.8 602.3 1769.8 602.3 M 1769.8 590.4 1769.8 590.4 M 1769.8 578.6 1769.8 578.6 M 1759.3 566.7 1780.2 566.7 M 1792 554.9 1747.5 554.9 M 2007.3 637.8 2137.6 637.8 M 2507.1 531.2 732.4 531.2 M 732.4 519.3 2507.1 519.3 M 2507.1 507.5 732.4 507.5 M 732.4 495.6 2507.1 495.6 M 2507.1 483.8 732.4 483.8 M 985.3 1609.5 456.9 1609.5 M 456.9 1621.4 984.4 1621.4 M 987.1 1633.2 649.1 1633.2 M 670.8 1645.1 994.5 1645.1 M 1014.2 1656.9 686.4 1656.9 M 732.4 1787.3 908.1 1787.3 M 897.6 1799.1 732.4 1799.1 M 732.4 1811 892.8 1811 M 892.8 1822.8 732.4 1822.8 M 732.4 1834.7 896.4 1834.7 M 905.2 1846.5 732.4 1846.5 M 732.4 1858.4 955.2 1858.4 M 930.8 1818.4 987.9 1818.4 M 1029.5 1834.7 1030.9 1834.7 M 1029.5 1846.5 1031.6 1846.5 M 1020.5 1858.4 1348.9 1858.4 M 1449.3 1751.7 2507.1 1751.7 M 2508.4 1739.9 1437.4 1739.9 M 1421.3 1728 2511 1728 M 2513.6 1716.2 1338.7 1716.2 M 1310.3 1716.2 1248.4 1716.2 M 1236.5 1704.3 2518.4 1704.3 M 2524.9 1692.5 1224.7 1692.5 M 1212.8 1680.6 2531.4 1680.6 M 2541.2 1668.8 1201 1668.8 M 1189.1 1656.9 2553.2 1656.9 M 2568.8 1645.1 1177.3 1645.1 M 1165.4 1633.2 2590.5 1633.2 M 2506.7 1763.6 1461.1 1763.6 M 1473 1775.4 2507.1 1775.4 M 2507.1 1787.3 2289.5 1787.3 M 2290.2 1788.6 2291.3 1792.6 2291.3 1812.5 2257.5 1812.5 2257.5 1824.2 2245.8 1824.2 2245.8 1812.5 2257.5 1812.5 2257.5 1778.7 2277.4 1778.7 2281.5 1779.8 2285.1 1781.9 2288.1 1784.9 2290.2 1788.6 M 2291.3 1799.1 2507.1 1799.1 M 2507.1 1811 2291.3 1811 M 2291.3 1824.2 2257.5 1824.2 2257.5 1858 2277.4 1858 2281.5 1856.9 2285.1 1854.8 2288.1 1851.8 2290.2 1848.2 2291.3 1844.1 2291.3 1824.2 M 2291.3 1834.7 2507.1 1834.7 M 2507.1 1846.5 2290.6 1846.5 M 2257.5 1846.5 2245.8 1846.5 M 2245.8 1858 2225.9 1858 2221.9 1856.9 2218.2 1854.8 2215.2 1851.8 2213.1 1848.2 2212 1844.1 2212 1824.2 2245.8 1824.2 2245.8 1858 M 2245.8 1834.7 2257.5 1834.7 M 2257.5 1822.8 2507.1 1822.8 M 2507.1 1858.4 2201.6 1858.4 M 2200.1 1860 2210.6 1849.4 2210.6 1787.3 2213.9 1787.3 M 2213.1 1788.6 2215.2 1784.9 2218.2 1781.9 2221.9 1779.8 2225.9 1778.7 2245.8 1778.7 2245.8 1812.5 2212 1812.5 2212 1792.6 2213.1 1788.6 M 2210.6 1787.3 2200.1 1776.7 2137.9 1776.7 2129.9 1784.7 2119.4 1780.4 2104.3 1780.4 2090.4 1786.1 2079.7 1796.8 2073.9 1810.8 2073.9 1825.9 2079.7 1839.9 2090.4 1850.6 2104.3 1856.4 2119.4 1856.4 2129.9 1852 2137.9 1860 2200.1 1860 M 2210.6 1846.5 2212.7 1846.5 M 2212 1834.7 2210.6 1834.7 M 2210.6 1822.8 2245.8 1822.8 M 2245.8 1811 2257.5 1811 M 2257.5 1799.1 2245.8 1799.1 M 2245.8 1787.3 2257.5 1787.3 M 2212 1799.1 2210.6 1799.1 M 2210.6 1811 2212 1811 M 2169 1818.4 2111.9 1818.4 M 2086.3 1846.5 1896.9 1846.5 M 1896.5 1848.2 1894.4 1851.8 1891.4 1854.8 1887.8 1856.9 1883.7 1858 1863.8 1858 1863.8 1824.2 1897.6 1824.2 1897.6 1844.1 1896.5 1848.2 M 1897.6 1834.7 2077.5 1834.7 M 2073.9 1822.8 1863.8 1822.8 M 1863.8 1812.5 1897.6 1812.5 1897.6 1792.6 1896.5 1788.6 1894.4 1784.9 1891.4 1781.9 1887.8 1779.8 1883.7 1778.7 1863.8 1778.7 1863.8 1812.5 M 1863.8 1811 1852.1 1811 M 1852.1 1822.8 1816.9 1822.8 M 1816.9 1811 1818.3 1811 M 1816.9 1799.1 1818.3 1799.1 M 1852.1 1799.1 1863.8 1799.1 M 1863.8 1787.3 1852.1 1787.3 M 1895.8 1787.3 2089.2 1787.3 M 2078.7 1799.1 1897.6 1799.1 M 1897.6 1811 2073.9 1811 M 2136.3 1858.4 1807.9 1858.4 M 1816.9 1846.5 1819 1846.5 M 1818.3 1834.7 1816.9 1834.7 M 1852.1 1834.7 1863.8 1834.7 M 1863.8 1846.5 1852.1 1846.5 M 1775.3 1818.4 1718.2 1818.4 M 1692.6 1846.5 1505.9 1846.5 M 1505.9 1834.7 1683.8 1834.7 M 1680.2 1822.8 1505.9 1822.8 M 1505.9 1811 1680.2 1811 M 1742.6 1858.4 1496.9 1858.4 M 732.4 1870.2 2507.1 1870.2 M 2507.1 1882.1 732.4 1882.1 M 732.4 1893.9 2507.1 1893.9" fill="none" stroke-width="12"/><path d="M 1677.4 1246.7 1617.4 1186.7 1617.4 991.7 1547.4 921.7" fill="none" stroke-width="24"/><path d="M 1440.1 716.7 1519.8 637.1 1519.8 597.9 M 1440.1 716.7 792.4 716.7 572.9 936.3 572.9 1444.7 672.4 1544.2 M 1369.9 1560.1 2188.7 1560.1 2238.7 1560.1 2309.9 1488.8 2309.9 1394.1 2416.2 1288.4" fill="none" stroke-width="32"/><use xlink:href="#ry-lDBI9b_pad-18" x="1677.4" y="1246.7"/><use xlink:href="#ry-lDBI9b_pad-18" x="1547.4" y="921.7"/><use xlink:href="#ry-lDBI9b_pad-18" x="672.4" y="1544.2"/><use xlink:href="#ry-lDBI9b_pad-18" x="1369.9" y="1560.1"/><path d="M 1022.9 1556.3 1022.9 1407.3 1073.9 1356.3 1073.9 1169.3 1047.4 1142.9 1047.4 1116.7 M 1032.4 836.7 1097.4 771.7 2172.4 771.7 2192.4 751.7 M 1022.9 1556.3 1022.4 1619.2" fill="none" stroke-width="16"/></g><g id="my-board_bottom_sm"><use xlink:href="#HkPlvHLqZ_pad-10" x="987.9" y="1818.4"/><use xlink:href="#HkPlvHLqZ_pad-10" x="1070.6" y="1818.4"/><use xlink:href="#HkPlvHLqZ_pad-10" x="1381.6" y="1818.4"/><use xlink:href="#HkPlvHLqZ_pad-10" x="1464.3" y="1818.4"/><use xlink:href="#HkPlvHLqZ_pad-10" x="1775.3" y="1818.4"/><use xlink:href="#HkPlvHLqZ_pad-10" x="1858" y="1818.4"/><use xlink:href="#HkPlvHLqZ_pad-10" x="2169" y="1818.4"/><use xlink:href="#HkPlvHLqZ_pad-10" x="2251.7" y="1818.4"/><use xlink:href="#HkPlvHLqZ_pad-11" x="645.4" y="1275"/><use xlink:href="#HkPlvHLqZ_pad-11" x="645.4" y="1101.8"/><use xlink:href="#HkPlvHLqZ_pad-12" x="1419.8" y="597.9"/><use xlink:href="#HkPlvHLqZ_pad-12" x="2516.2" y="988.4"/><use xlink:href="#HkPlvHLqZ_pad-13" x="2416.2" y="988.4"/><use xlink:href="#HkPlvHLqZ_pad-13" x="2416.2" y="1088.4"/><use xlink:href="#HkPlvHLqZ_pad-13" x="2516.2" y="1088.4"/><use xlink:href="#HkPlvHLqZ_pad-13" x="2516.2" y="1188.4"/><use xlink:href="#HkPlvHLqZ_pad-13" x="2416.2" y="1188.4"/><use xlink:href="#HkPlvHLqZ_pad-13" x="2416.2" y="1288.4"/><use xlink:href="#HkPlvHLqZ_pad-13" x="2516.2" y="1288.4"/><use xlink:href="#HkPlvHLqZ_pad-13" x="2516.2" y="1388.4"/><use xlink:href="#HkPlvHLqZ_pad-13" x="2416.2" y="1388.4"/><use xlink:href="#HkPlvHLqZ_pad-13" x="1819.8" y="597.9"/><use xlink:href="#HkPlvHLqZ_pad-13" x="1719.8" y="597.9"/><use xlink:href="#HkPlvHLqZ_pad-13" x="1619.8" y="597.9"/><use xlink:href="#HkPlvHLqZ_pad-13" x="1519.8" y="597.9"/><use xlink:href="#HkPlvHLqZ_pad-14" x="596.1" y="617.6"/><use xlink:href="#HkPlvHLqZ_pad-14" x="596.1" y="1759.3"/><use xlink:href="#HkPlvHLqZ_pad-14" x="2643.4" y="1759.3"/><use xlink:href="#HkPlvHLqZ_pad-14" x="2643.4" y="617.6"/><use xlink:href="#HkPlvHLqZ_pad-15" x="1547.4" y="921.7"/><use xlink:href="#HkPlvHLqZ_pad-15" x="1677.4" y="1246.7"/><use xlink:href="#HkPlvHLqZ_pad-15" x="1369.9" y="1560.1"/><use xlink:href="#HkPlvHLqZ_pad-15" x="672.4" y="1544.2"/></g><g id="my-board_bottom_out"><path d="M 533.1 617.6 533.3 622.6 533.9 627.6 534.9 632.5 536.3 637.3 538 642 540.1 646.5 542.6 650.9 545.4 655 548.6 658.9 552 662.6 555.7 666 559.7 669 563.9 671.7 568.3 674.1 572.9 676.2 577.6 677.8 582.4 679.1 587.4 680 592.3 680.5 597.4 680.6 602.4 680.3 607.3 679.6 612.2 678.5 617 677 621.6 675.2 626.1 673 630.4 670.4 634.5 667.5 638.4 664.3 642 660.8 645.2 657 648.2 653 650.9 648.7 653.2 644.3 655.1 639.7 656.7 634.9 657.9 630 658.7 625.1 659.1 620.1 659.1 615.1 658.7 610.1 657.9 605.2 656.7 600.3 655.1 595.5 653.2 590.9 650.9 586.5 648.2 582.2 645.2 578.2 642 574.4 638.4 570.9 634.5 567.7 630.4 564.8 626.1 562.2 621.6 560 617 558.2 612.2 556.7 607.3 555.6 602.4 554.9 597.4 554.6 592.3 554.7 587.4 555.2 582.4 556.1 577.6 557.4 572.9 559 568.3 561.1 563.9 563.5 559.7 566.2 555.7 569.2 552 572.6 548.6 576.3 545.4 580.2 542.6 584.3 540.1 588.7 538 593.2 536.3 597.9 534.9 602.7 533.9 607.6 533.3 612.6 533.1 617.6 M 627.7 1101.8 627.9 1104.4 628.5 1107 629.5 1109.5 630.8 1111.8 632.4 1113.8 634.4 1115.6 636.6 1117.1 638.9 1118.3 641.5 1119.1 644.1 1119.5 646.7 1119.5 649.3 1119.1 651.9 1118.3 654.3 1117.1 656.4 1115.6 658.4 1113.8 660 1111.8 661.3 1109.5 662.3 1107 662.9 1104.4 663.1 1101.8 662.9 1099.2 662.3 1096.6 661.3 1094.1 660 1091.8 658.4 1089.8 656.4 1088 654.2 1086.5 651.9 1085.3 649.3 1084.5 646.7 1084.1 644.1 1084.1 641.5 1084.5 638.9 1085.3 636.5 1086.5 634.4 1088 632.4 1089.8 630.8 1091.8 629.5 1094.1 628.5 1096.6 627.9 1099.2 627.7 1101.8 M 627.7 1275 627.9 1277.6 628.5 1280.2 629.5 1282.7 630.8 1285 632.4 1287 634.4 1288.8 636.6 1290.3 638.9 1291.5 641.5 1292.3 644.1 1292.7 646.7 1292.7 649.3 1292.3 651.9 1291.5 654.3 1290.3 656.4 1288.8 658.4 1287 660 1285 661.3 1282.7 662.3 1280.2 662.9 1277.6 663.1 1275 662.9 1272.4 662.3 1269.8 661.3 1267.3 660 1265 658.4 1263 656.4 1261.2 654.2 1259.7 651.9 1258.5 649.3 1257.7 646.7 1257.3 644.1 1257.3 641.5 1257.7 638.9 1258.5 636.5 1259.7 634.4 1261.2 632.4 1263 630.8 1265 629.5 1267.3 628.5 1269.8 627.9 1272.4 627.7 1275 M 533.1 1759.3 533.3 1764.3 533.9 1769.3 534.9 1774.2 536.3 1779 538 1783.7 540.1 1788.2 542.6 1792.6 545.4 1796.7 548.6 1800.6 552 1804.3 555.7 1807.7 559.7 1810.7 563.9 1813.4 568.3 1815.8 572.9 1817.9 577.6 1819.5 582.4 1820.8 587.4 1821.7 592.3 1822.2 597.4 1822.3 602.4 1822 607.3 1821.3 612.2 1820.2 617 1818.7 621.6 1816.9 626.1 1814.7 630.4 1812.1 634.5 1809.2 638.4 1806 642 1802.5 645.2 1798.7 648.2 1794.7 650.9 1790.4 653.2 1786 655.1 1781.4 656.7 1776.6 657.9 1771.7 658.7 1766.8 659.1 1761.8 659.1 1756.8 658.7 1751.8 657.9 1746.9 656.7 1742 655.1 1737.2 653.2 1732.6 650.9 1728.2 648.2 1723.9 645.2 1719.9 642 1716.1 638.4 1712.6 634.5 1709.4 630.4 1706.5 626.1 1703.9 621.6 1701.7 617 1699.9 612.2 1698.4 607.3 1697.3 602.4 1696.6 597.4 1696.3 592.3 1696.4 587.4 1696.9 582.4 1697.8 577.6 1699.1 572.9 1700.7 568.3 1702.8 563.9 1705.2 559.7 1707.9 555.7 1710.9 552 1714.3 548.6 1718 545.4 1721.9 542.6 1726 540.1 1730.4 538 1734.9 536.3 1739.6 534.9 1744.4 533.9 1749.3 533.3 1754.3 533.1 1759.3 M 2580.4 1759.3 2580.6 1764.3 2581.2 1769.3 2582.2 1774.2 2583.6 1779 2585.3 1783.7 2587.4 1788.2 2589.9 1792.6 2592.7 1796.7 2595.9 1800.6 2599.3 1804.3 2603 1807.7 2607 1810.7 2611.2 1813.4 2615.6 1815.8 2620.2 1817.9 2624.9 1819.5 2629.7 1820.8 2634.7 1821.7 2639.6 1822.2 2644.7 1822.3 2649.7 1822 2654.6 1821.3 2659.5 1820.2 2664.3 1818.7 2668.9 1816.9 2673.4 1814.7 2677.7 1812.1 2681.8 1809.2 2685.7 1806 2689.3 1802.5 2692.5 1798.7 2695.5 1794.7 2698.2 1790.4 2700.5 1786 2702.4 1781.4 2704 1776.6 2705.2 1771.7 2706 1766.8 2706.4 1761.8 2706.4 1756.8 2706 1751.8 2705.2 1746.9 2704 1742 2702.4 1737.2 2700.5 1732.6 2698.2 1728.2 2695.5 1723.9 2692.5 1719.9 2689.3 1716.1 2685.7 1712.6 2681.8 1709.4 2677.7 1706.5 2673.4 1703.9 2668.9 1701.7 2664.3 1699.9 2659.5 1698.4 2654.6 1697.3 2649.7 1696.6 2644.7 1696.3 2639.6 1696.4 2634.7 1696.9 2629.7 1697.8 2624.9 1699.1 2620.2 1700.7 2615.6 1702.8 2611.2 1705.2 2607 1707.9 2603 1710.9 2599.3 1714.3 2595.9 1718 2592.7 1721.9 2589.9 1726 2587.4 1730.4 2585.3 1734.9 2583.6 1739.6 2582.2 1744.4 2581.2 1749.3 2580.6 1754.3 2580.4 1759.3 M 2580.4 617.6 2580.6 622.6 2581.2 627.6 2582.2 632.5 2583.6 637.3 2585.3 642 2587.4 646.5 2589.9 650.9 2592.7 655 2595.9 658.9 2599.3 662.6 2603 666 2607 669 2611.2 671.7 2615.6 674.1 2620.2 676.2 2624.9 677.8 2629.7 679.1 2634.7 680 2639.6 680.5 2644.7 680.6 2649.7 680.3 2654.6 679.6 2659.5 678.5 2664.3 677 2668.9 675.2 2673.4 673 2677.7 670.4 2681.8 667.5 2685.7 664.3 2689.3 660.8 2692.5 657 2695.5 653 2698.2 648.7 2700.5 644.3 2702.4 639.7 2704 634.9 2705.2 630 2706 625.1 2706.4 620.1 2706.4 615.1 2706 610.1 2705.2 605.2 2704 600.3 2702.4 595.5 2700.5 590.9 2698.2 586.5 2695.5 582.2 2692.5 578.2 2689.3 574.4 2685.7 570.9 2681.8 567.7 2677.7 564.8 2673.4 562.2 2668.9 560 2664.3 558.2 2659.5 556.7 2654.6 555.6 2649.7 554.9 2644.7 554.6 2639.6 554.7 2634.7 555.2 2629.7 556.1 2624.9 557.4 2620.2 559 2615.6 561.1 2611.2 563.5 2607 566.2 2603 569.2 2599.3 572.6 2595.9 576.3 2592.7 580.2 2589.9 584.3 2587.4 588.7 2585.3 593.2 2583.6 597.9 2582.2 602.7 2581.2 607.6 2580.6 612.6 2580.4 617.6 M 2643.4 460.1 596.1 460.1 588.4 460.3 580.7 460.9 573 461.8 565.4 463.1 557.8 464.8 550.4 466.9 543 469.3 535.8 472.1 528.8 475.2 521.9 478.7 515.1 482.5 508.6 486.6 502.3 491.1 496.2 495.9 490.3 500.9 484.7 506.2 479.4 511.8 474.4 517.7 469.6 523.8 465.1 530.1 461 536.6 457.2 543.4 453.7 550.3 450.6 557.3 447.8 564.5 445.4 571.9 443.3 579.3 441.6 586.9 440.3 594.5 439.4 602.2 438.8 609.9 438.6 617.6 438.7 1759.3 438.8 1767 439.4 1774.7 440.3 1782.4 441.6 1790 443.3 1797.6 445.4 1805 447.8 1812.4 450.6 1819.6 453.7 1826.6 457.2 1833.5 461 1840.3 465.1 1846.8 469.6 1853.1 474.4 1859.2 479.4 1865.1 484.7 1870.7 490.3 1876 496.2 1881 502.3 1885.8 508.6 1890.3 515.1 1894.4 521.9 1898.2 528.8 1901.7 535.8 1904.8 543 1907.6 550.4 1910 557.8 1912.1 565.4 1913.8 573 1915.1 580.7 1916 588.4 1916.6 596.1 1916.8 2643.4 1916.8 2651.1 1916.6 2658.8 1916 2666.5 1915.1 2674.1 1913.8 2681.7 1912.1 2689.1 1910 2696.5 1907.6 2703.7 1904.8 2710.7 1901.7 2717.6 1898.2 2724.4 1894.4 2730.9 1890.3 2737.2 1885.8 2743.3 1881 2749.2 1876 2754.8 1870.7 2760.1 1865.1 2765.1 1859.2 2769.9 1853.1 2774.4 1846.8 2778.5 1840.3 2782.3 1833.5 2785.8 1826.6 2788.9 1819.6 2791.7 1812.4 2794.1 1805 2796.2 1797.6 2797.9 1790 2799.2 1782.4 2800.1 1774.7 2800.7 1767 2800.9 1759.3 2800.9 617.6 2800.7 609.9 2800.1 602.2 2799.2 594.5 2797.9 586.9 2796.2 579.3 2794.1 571.9 2791.7 564.5 2788.9 557.3 2785.8 550.3 2782.3 543.4 2778.5 536.6 2774.4 530.1 2769.9 523.8 2765.1 517.7 2760.1 511.8 2754.8 506.2 2749.2 500.9 2743.3 495.9 2737.2 491.1 2730.9 486.6 2724.4 482.5 2717.6 478.7 2710.7 475.2 2703.7 472.1 2696.5 469.3 2689.1 466.9 2681.7 464.8 2674.1 463.1 2666.5 461.8 2658.8 460.9 2651.1 460.3 2643.4 460.1" fill="none" stroke-width="0"/></g><g id="my-board_bottom_drl1"><use xlink:href="#ByzewHL9-_pad-1" x="75360" y="49950"/><use xlink:href="#ByzewHL9-_pad-1" x="97020" y="65690"/><use xlink:href="#ByzewHL9-_pad-1" x="11080" y="65690"/><use xlink:href="#ByzewHL9-_pad-1" x="12887" y="82880"/><use xlink:href="#ByzewHL9-_pad-1" x="13512" y="83510"/><use xlink:href="#ByzewHL9-_pad-1" x="11374" y="86170"/><use xlink:href="#ByzewHL9-_pad-1" x="10324" y="83670"/><use xlink:href="#ByzewHL9-_pad-1" x="97240" y="85670"/><use xlink:href="#ByzewHL9-_pad-1" x="10574" y="96670"/><use xlink:href="#ByzewHL9-_pad-1" x="10574" y="10517"/><use xlink:href="#ByzewHL9-_pad-1" x="10474" y="11167"/><use xlink:href="#ByzewHL9-_pad-1" x="11774" y="10567"/><use xlink:href="#ByzewHL9-_pad-1" x="13474" y="11067"/><use xlink:href="#ByzewHL9-_pad-1" x="11674" y="12067"/><use xlink:href="#ByzewHL9-_pad-1" x="10004" y="13267"/><use xlink:href="#ByzewHL9-_pad-1" x="86370" y="13851"/><use xlink:href="#ByzewHL9-_pad-1" x="78240" y="15226"/><use xlink:href="#ByzewHL9-_pad-1" x="10224" y="16192"/><use xlink:href="#ByzewHL9-_pad-1" x="11387" y="17601"/><use xlink:href="#ByzewHL9-_pad-1" x="13245" y="17514"/><use xlink:href="#ByzewHL9-_pad-1" x="13245" y="18184"/><use xlink:href="#ByzewHL9-_pad-1" x="13712" y="16205"/><use xlink:href="#ByzewHL9-_pad-1" x="12524" y="15267"/><use xlink:href="#ByzewHL9-_pad-1" x="13712" y="14892"/><use xlink:href="#ByzewHL9-_pad-1" x="15024" y="14892"/><use xlink:href="#ByzewHL9-_pad-1" x="14724" y="13767"/><use xlink:href="#ByzewHL9-_pad-1" x="13924" y="12517"/><use xlink:href="#ByzewHL9-_pad-1" x="16924" y="11567"/><use xlink:href="#ByzewHL9-_pad-1" x="15474" y="10667"/><use xlink:href="#ByzewHL9-_pad-1" x="16974" y="10367"/><use xlink:href="#ByzewHL9-_pad-1" x="18967" y="91250"/><use xlink:href="#ByzewHL9-_pad-1" x="19524" y="94770"/><use xlink:href="#ByzewHL9-_pad-1" x="19714" y="10367"/><use xlink:href="#ByzewHL9-_pad-1" x="22137" y="91670"/><use xlink:href="#ByzewHL9-_pad-1" x="22637" y="86670"/><use xlink:href="#ByzewHL9-_pad-1" x="23037" y="81670"/><use xlink:href="#ByzewHL9-_pad-1" x="21924" y="75170"/><use xlink:href="#ByzewHL9-_pad-1" x="21624" y="66670"/><use xlink:href="#ByzewHL9-_pad-1" x="19824" y="66670"/><use xlink:href="#ByzewHL9-_pad-1" x="19724" y="71670"/><use xlink:href="#ByzewHL9-_pad-1" x="18979" y="71070"/><use xlink:href="#ByzewHL9-_pad-1" x="17274" y="83170"/><use xlink:href="#ByzewHL9-_pad-1" x="17124" y="88670"/><use xlink:href="#ByzewHL9-_pad-1" x="18424" y="87100"/><use xlink:href="#ByzewHL9-_pad-1" x="22906" y="98170"/><use xlink:href="#ByzewHL9-_pad-1" x="22712" y="11267"/><use xlink:href="#ByzewHL9-_pad-1" x="23416" y="11884"/><use xlink:href="#ByzewHL9-_pad-1" x="22365" y="12396"/><use xlink:href="#ByzewHL9-_pad-1" x="21593" y="12267"/><use xlink:href="#ByzewHL9-_pad-1" x="19735" y="13832"/><use xlink:href="#ByzewHL9-_pad-1" x="17574" y="14226"/><use xlink:href="#ByzewHL9-_pad-1" x="18762" y="16288"/><use xlink:href="#ByzewHL9-_pad-1" x="16637" y="17351"/><use xlink:href="#ByzewHL9-_pad-1" x="17182" y="18184"/><use xlink:href="#ByzewHL9-_pad-1" x="21119" y="18184"/><use xlink:href="#ByzewHL9-_pad-1" x="21119" y="17378"/><use xlink:href="#ByzewHL9-_pad-1" x="23487" y="18184"/><use xlink:href="#ByzewHL9-_pad-1" x="24859" y="18774"/><use xlink:href="#ByzewHL9-_pad-1" x="27615" y="16018"/><use xlink:href="#ByzewHL9-_pad-1" x="26684" y="14757"/><use xlink:href="#ByzewHL9-_pad-1" x="26664" y="13405"/><use xlink:href="#ByzewHL9-_pad-1" x="26644" y="11415"/><use xlink:href="#ByzewHL9-_pad-1" x="26044" y="91470"/><use xlink:href="#ByzewHL9-_pad-1" x="25254" y="81570"/><use xlink:href="#ByzewHL9-_pad-1" x="23424" y="67670"/><use xlink:href="#ByzewHL9-_pad-1" x="23824" y="62670"/><use xlink:href="#ByzewHL9-_pad-1" x="24859" y="49950"/><use xlink:href="#ByzewHL9-_pad-1" x="27615" y="77500"/><use xlink:href="#ByzewHL9-_pad-1" x="20387" y="56010"/><use xlink:href="#ByzewHL9-_pad-1" x="85140" y="10777"/><use xlink:href="#ByzewHL9-_pad-1" x="63550" y="10310"/><use xlink:href="#ByzewHL9-_pad-1" x="77140" y="91370"/><use xlink:href="#ByzewHL9-_pad-1" x="47800" y="77500"/><use xlink:href="#ByzewHL9-_pad-1" x="63550" y="11687"/><use xlink:href="#ByzewHL9-_pad-1" x="11537" y="14267"/><use xlink:href="#ByzewHL9-_pad-1" x="47800" y="16018"/><use xlink:href="#ByzewHL9-_pad-1" x="75360" y="18774"/><use xlink:href="#ByzewHL9-_pad-1" x="93080" y="18184"/><use xlink:href="#ByzewHL9-_pad-1" x="21887" y="15601"/><use xlink:href="#ByzewHL9-_pad-1" x="23876" y="15677"/><use xlink:href="#ByzewHL9-_pad-2" x="22406" y="14267"/><use xlink:href="#ByzewHL9-_pad-2" x="15012" y="72880"/><use xlink:href="#ByzewHL9-_pad-3" x="15474" y="92170"/><use xlink:href="#ByzewHL9-_pad-3" x="16774" y="12467"/><use xlink:href="#ByzewHL9-_pad-3" x="13699" y="15601"/><use xlink:href="#ByzewHL9-_pad-3" x="67240" y="15442"/><use xlink:href="#ByzewHL9-_pad-4" x="64540" y="12750"/><use xlink:href="#ByzewHL9-_pad-4" x="64540" y="11018"/><use xlink:href="#ByzewHL9-_pad-5" x="14198" y="59790"/><use xlink:href="#ByzewHL9-_pad-5" x="15198" y="59790"/><use xlink:href="#ByzewHL9-_pad-5" x="16198" y="59790"/><use xlink:href="#ByzewHL9-_pad-5" x="17198" y="59790"/><use xlink:href="#ByzewHL9-_pad-5" x="18198" y="59790"/><use xlink:href="#ByzewHL9-_pad-5" x="24162" y="98840"/><use xlink:href="#ByzewHL9-_pad-5" x="25162" y="98840"/><use xlink:href="#ByzewHL9-_pad-5" x="25162" y="10884"/><use xlink:href="#ByzewHL9-_pad-5" x="24162" y="10884"/><use xlink:href="#ByzewHL9-_pad-5" x="24162" y="11884"/><use xlink:href="#ByzewHL9-_pad-5" x="25162" y="11884"/><use xlink:href="#ByzewHL9-_pad-5" x="25162" y="12884"/><use xlink:href="#ByzewHL9-_pad-5" x="24162" y="12884"/><use xlink:href="#ByzewHL9-_pad-5" x="24162" y="13884"/><use xlink:href="#ByzewHL9-_pad-5" x="25162" y="13884"/><use xlink:href="#ByzewHL9-_pad-6" x="26434" y="17593"/><use xlink:href="#ByzewHL9-_pad-6" x="26434" y="61760"/><use xlink:href="#ByzewHL9-_pad-6" x="59610" y="61760"/><use xlink:href="#ByzewHL9-_pad-6" x="59610" y="17593"/></g><mask id="my-board_bottom_mech-mask" fill="#000" stroke="#000"><rect x="438.6" y="460.1" width="2362.3" height="1456.7" fill="#fff"/><use xlink:href="#my-board_bottom_drl1"/></mask><mask id="my-board_bottom_cf-mask" fill="#fff" stroke="#fff"><use xlink:href="#my-board_bottom_sm"/></mask><mask id="my-board_bottom_sm-mask" fill="#000" stroke="#000"><rect x="438.6" y="460.1" width="2362.3" height="1456.7" fill="#fff"/><use xlink:href="#my-board_bottom_sm"/></mask></defs><g transform="translate(3239.5,2376.9) scale(-1,-1)"><g mask="url(#my-board_bottom_mech-mask)"><rect x="438.6" y="460.1" width="2362.3" height="1456.7" class="my-board_fr4" fill="currentColor"/><use class="my-board_cu" fill="currentColor" stroke="currentColor" xlink:href="#my-board_bottom_cu"/><use class="my-board_cf" fill="currentColor" stroke="currentColor" mask="url(#my-board_bottom_cf-mask)" xlink:href="#my-board_bottom_cu"/><g mask="url(#my-board_bottom_sm-mask)"><rect x="438.6" y="460.1" width="2362.3" height="1456.7" class="my-board_sm" fill="currentColor"/></g><use class="my-board_out" fill="currentColor" stroke="currentColor" xlink:href="#my-board_bottom_out"/></g></g></svg>